<svg width="1928" height="585" viewBox="0 0 1928 585" fill="none" xmlns="http://www.w3.org/2000/svg">
<g opacity="0.7">
<g filter="url(#filter0_f_5911_2126)">
<rect x="881.134" y="308.824" width="19.5504" height="71.6304" fill="#0260FD" stroke="#0260FD" stroke-width="2.01817"/>
<path d="M890.909 286.772V408.819" stroke="#0260FD" stroke-width="2.01817"/>
<rect x="849.979" y="283.573" width="19.5504" height="23.2328" fill="#0260FD" stroke="#0260FD" stroke-width="2.01817"/>
<path d="M859.752 234.166V337.274" stroke="#0260FD" stroke-width="2.01817"/>
<rect x="756.516" y="302.512" width="19.5504" height="48.4837" fill="#0260FD" stroke="#0260FD" stroke-width="2.01817"/>
<path d="M766.291 297.294V358.317" stroke="#0260FD" stroke-width="2.01817"/>
<rect x="663.052" y="329.867" width="19.5504" height="27.4413" fill="#0260FD" stroke="#0260FD" stroke-width="2.01817"/>
<path d="M672.827 274.147V389.88" stroke="#0260FD" stroke-width="2.01817"/>
<rect x="631.895" y="300.407" width="19.5504" height="27.4413" fill="#0260FD" stroke="#0260FD" stroke-width="2.01817"/>
<path d="M641.671 248.896V360.421" stroke="#0260FD" stroke-width="2.01817"/>
<rect x="600.742" y="243.592" width="19.5504" height="56.9007" fill="#0260FD" stroke="#0260FD" stroke-width="2.01817"/>
<path d="M610.519 72.1396V320.441" stroke="#0260FD" stroke-width="2.01817"/>
<rect x="569.587" y="201.508" width="19.5504" height="40.0667" fill="#0260FD" stroke="#0260FD" stroke-width="2.01817"/>
<path d="M579.363 2.69971V507.718" stroke="#0260FD" stroke-width="2.01817"/>
<rect x="507.277" y="310.928" width="19.5504" height="63.2134" fill="#0260FD" stroke="#0260FD" stroke-width="2.01817"/>
<path d="M517.053 141.58V421.444" stroke="#0260FD" stroke-width="2.01817"/>
<rect x="444.969" y="395.098" width="19.5504" height="16.92" fill="#0260FD" stroke="#0260FD" stroke-width="2.01817"/>
<path d="M454.745 333.066V453.008" stroke="#0260FD" stroke-width="2.01817"/>
<rect x="382.659" y="424.557" width="19.5504" height="12.7115" fill="#0260FD" stroke="#0260FD" stroke-width="2.01817"/>
<path d="M392.435 288.877V444.591" stroke="#0260FD" stroke-width="2.01817"/>
<rect x="351.504" y="344.596" width="19.5504" height="77.9431" fill="#0260FD" stroke="#0260FD" stroke-width="2.01817"/>
<path d="M361.279 295.189V442.487" stroke="#0260FD" stroke-width="2.01817"/>
<rect x="253.248" y="445.6" width="19.5504" height="44.2752" fill="#0260FD" stroke="#0260FD" stroke-width="2.01817"/>
<path d="M263.023 436.174V564.533" stroke="#0260FD" stroke-width="2.01817"/>
<rect x="159.783" y="334.075" width="19.5504" height="138.966" fill="#0260FD" stroke="#0260FD" stroke-width="2.01817"/>
<path d="M169.56 305.71V478.259" stroke="#0260FD" stroke-width="2.01817"/>
<rect x="128.63" y="270.947" width="19.5504" height="61.1092" fill="#0260FD" stroke="#0260FD" stroke-width="2.01817"/>
<path d="M138.405 265.73V345.691" stroke="#0260FD" stroke-width="2.01817"/>
<rect x="66.3216" y="252.01" width="19.5504" height="40.0667" fill="#0260FD" stroke="#0260FD" stroke-width="2.01817"/>
<path d="M76.0957 246.792V295.189" stroke="#0260FD" stroke-width="2.01817"/>
<rect x="4.00908" y="266.739" width="19.5504" height="16.92" fill="#0260FD" stroke="#0260FD" stroke-width="2.01817"/>
<path d="M13.7861 213.124L13.7861 328.858" stroke="#0260FD" stroke-width="2.01817"/>
<rect x="190.94" y="475.059" width="19.5504" height="29.5455" fill="#0260FD" stroke="#0260FD" stroke-width="2.01817"/>
<path d="M200.714 417.236V526.657" stroke="#0260FD" stroke-width="2.01817"/>
<rect x="943.444" y="283.573" width="19.5504" height="42.171" fill="#001D5D" stroke="#001D5D" stroke-width="2.01817"/>
<path d="M953.219 261.522V347.796" stroke="#001D5D" stroke-width="2.01817"/>
<rect x="912.288" y="327.762" width="19.5504" height="52.6922" fill="#001D5D" stroke="#001D5D" stroke-width="2.01817"/>
<path d="M922.064 288.877V394.089" stroke="#001D5D" stroke-width="2.01817"/>
<rect x="818.825" y="283.573" width="19.5504" height="61.1092" fill="#001D5D" stroke="#001D5D" stroke-width="2.01817"/>
<path d="M828.602 274.147V328.857" stroke="#001D5D" stroke-width="2.01817"/>
<rect x="787.669" y="346.7" width="19.5504" height="4.29457" fill="#001D5D" stroke="#001D5D" stroke-width="2.01817"/>
<path d="M797.445 288.877V381.463" stroke="#001D5D" stroke-width="2.01817"/>
<rect x="725.361" y="302.511" width="19.5504" height="16.92" fill="#001D5D" stroke="#001D5D" stroke-width="2.01817"/>
<path d="M735.134 272.042V373.046" stroke="#001D5D" stroke-width="2.01817"/>
<rect x="694.207" y="321.45" width="19.5504" height="35.8582" fill="#001D5D" stroke="#001D5D" stroke-width="2.01817"/>
<path d="M703.979 263.626V370.943" stroke="#001D5D" stroke-width="2.01817"/>
<rect x="538.432" y="201.507" width="19.5504" height="172.634" fill="#001D5D" stroke="#001D5D" stroke-width="2.01817"/>
<path d="M548.209 141.58V375.151" stroke="#001D5D" stroke-width="2.01817"/>
<rect x="476.124" y="310.928" width="19.5504" height="101.09" fill="#001D5D" stroke="#001D5D" stroke-width="2.01817"/>
<path d="M485.9 282.564V421.444" stroke="#001D5D" stroke-width="2.01817"/>
<rect x="413.814" y="395.098" width="19.5504" height="42.171" fill="#001D5D" stroke="#001D5D" stroke-width="2.01817"/>
<path d="M423.588 316.232V455.112" stroke="#001D5D" stroke-width="2.01817"/>
<rect x="320.351" y="344.596" width="19.5504" height="42.171" fill="#001D5D" stroke="#001D5D" stroke-width="2.01817"/>
<path d="M330.127 305.71V459.32" stroke="#001D5D" stroke-width="2.01817"/>
<rect x="284.403" y="388.785" width="19.5504" height="101.09" fill="#001D5D" stroke="#001D5D" stroke-width="2.01817"/>
<path d="M294.178 383.568V495.093" stroke="#001D5D" stroke-width="2.01817"/>
<rect x="222.093" y="445.6" width="19.5504" height="59.0049" fill="#001D5D" stroke="#001D5D" stroke-width="2.01817"/>
<path d="M231.869 427.757V505.614" stroke="#001D5D" stroke-width="2.01817"/>
<rect x="97.4749" y="270.948" width="19.5504" height="21.1285" fill="#001D5D" stroke="#001D5D" stroke-width="2.01817"/>
<path d="M107.251 263.626V360.421" stroke="#001D5D" stroke-width="2.01817"/>
<rect x="35.1644" y="252.01" width="19.5504" height="31.6498" fill="#001D5D" stroke="#001D5D" stroke-width="2.01817"/>
<path d="M44.9414 202.603L44.9414 299.398" stroke="#001D5D" stroke-width="2.01817"/>
</g>
<g filter="url(#filter1_f_5911_2126)">
<rect x="1842.91" y="327.125" width="19.5504" height="71.6304" fill="#0260FD" stroke="#0260FD" stroke-width="2.01817"/>
<path d="M1852.68 305.073V427.119" stroke="#0260FD" stroke-width="2.01817"/>
<rect x="1811.76" y="301.874" width="19.5504" height="23.2328" fill="#0260FD" stroke="#0260FD" stroke-width="2.01817"/>
<path d="M1821.53 252.467V355.575" stroke="#0260FD" stroke-width="2.01817"/>
<rect x="1718.29" y="320.812" width="19.5504" height="48.4837" fill="#0260FD" stroke="#0260FD" stroke-width="2.01817"/>
<path d="M1728.07 315.594V376.618" stroke="#0260FD" stroke-width="2.01817"/>
<rect x="1624.83" y="348.167" width="19.5504" height="27.4413" fill="#0260FD" stroke="#0260FD" stroke-width="2.01817"/>
<path d="M1634.6 292.448V408.181" stroke="#0260FD" stroke-width="2.01817"/>
<rect x="1593.67" y="318.708" width="19.5504" height="27.4413" fill="#0260FD" stroke="#0260FD" stroke-width="2.01817"/>
<path d="M1603.45 267.197V378.722" stroke="#0260FD" stroke-width="2.01817"/>
<rect x="1562.51" y="261.893" width="19.5504" height="56.9007" fill="#0260FD" stroke="#0260FD" stroke-width="2.01817"/>
<path d="M1572.29 90.4404V338.741" stroke="#0260FD" stroke-width="2.01817"/>
<rect x="1531.36" y="219.808" width="19.5504" height="40.0667" fill="#0260FD" stroke="#0260FD" stroke-width="2.01817"/>
<path d="M1541.13 21V526.019" stroke="#0260FD" stroke-width="2.01817"/>
<rect x="1469.04" y="329.229" width="19.5504" height="63.2134" fill="#0260FD" stroke="#0260FD" stroke-width="2.01817"/>
<path d="M1478.82 159.88V439.745" stroke="#0260FD" stroke-width="2.01817"/>
<rect x="1406.74" y="413.399" width="19.5504" height="16.92" fill="#0260FD" stroke="#0260FD" stroke-width="2.01817"/>
<path d="M1416.52 351.367V471.309" stroke="#0260FD" stroke-width="2.01817"/>
<rect x="1344.44" y="442.858" width="19.5504" height="12.7115" fill="#0260FD" stroke="#0260FD" stroke-width="2.01817"/>
<path d="M1354.21 307.177V462.892" stroke="#0260FD" stroke-width="2.01817"/>
<rect x="1313.28" y="362.897" width="19.5504" height="77.9431" fill="#0260FD" stroke="#0260FD" stroke-width="2.01817"/>
<path d="M1323.05 313.49V460.787" stroke="#0260FD" stroke-width="2.01817"/>
<rect x="1215.02" y="463.901" width="19.5504" height="44.2752" fill="#0260FD" stroke="#0260FD" stroke-width="2.01817"/>
<path d="M1224.79 454.475V582.834" stroke="#0260FD" stroke-width="2.01817"/>
<rect x="1121.56" y="352.375" width="19.5504" height="138.966" fill="#0260FD" stroke="#0260FD" stroke-width="2.01817"/>
<path d="M1131.33 324.011V496.559" stroke="#0260FD" stroke-width="2.01817"/>
<rect x="1090.4" y="289.248" width="19.5504" height="61.1092" fill="#0260FD" stroke="#0260FD" stroke-width="2.01817"/>
<path d="M1100.18 284.031V363.992" stroke="#0260FD" stroke-width="2.01817"/>
<rect x="1028.09" y="270.31" width="19.5504" height="40.0667" fill="#0260FD" stroke="#0260FD" stroke-width="2.01817"/>
<path d="M1037.87 265.092V313.49" stroke="#0260FD" stroke-width="2.01817"/>
<rect x="965.783" y="285.04" width="19.5504" height="16.92" fill="#0260FD" stroke="#0260FD" stroke-width="2.01817"/>
<path d="M975.556 231.425V347.158" stroke="#0260FD" stroke-width="2.01817"/>
<rect x="1152.71" y="493.36" width="19.5504" height="29.5455" fill="#0260FD" stroke="#0260FD" stroke-width="2.01817"/>
<path d="M1162.48 435.536V544.957" stroke="#0260FD" stroke-width="2.01817"/>
<rect x="1905.22" y="301.874" width="19.5504" height="42.171" fill="#001D5D" stroke="#001D5D" stroke-width="2.01817"/>
<path d="M1914.99 279.822V366.096" stroke="#001D5D" stroke-width="2.01817"/>
<rect x="1874.06" y="346.063" width="19.5504" height="52.6922" fill="#001D5D" stroke="#001D5D" stroke-width="2.01817"/>
<path d="M1883.84 307.177V412.39" stroke="#001D5D" stroke-width="2.01817"/>
<rect x="1780.6" y="301.874" width="19.5504" height="61.1092" fill="#001D5D" stroke="#001D5D" stroke-width="2.01817"/>
<path d="M1790.37 292.448V347.158" stroke="#001D5D" stroke-width="2.01817"/>
<rect x="1749.44" y="365.001" width="19.5504" height="4.29457" fill="#001D5D" stroke="#001D5D" stroke-width="2.01817"/>
<path d="M1759.22 307.177V399.764" stroke="#001D5D" stroke-width="2.01817"/>
<rect x="1687.14" y="320.812" width="19.5504" height="16.92" fill="#001D5D" stroke="#001D5D" stroke-width="2.01817"/>
<path d="M1696.91 290.344V391.347" stroke="#001D5D" stroke-width="2.01817"/>
<rect x="1655.98" y="339.75" width="19.5504" height="35.8582" fill="#001D5D" stroke="#001D5D" stroke-width="2.01817"/>
<path d="M1665.75 281.927V389.243" stroke="#001D5D" stroke-width="2.01817"/>
<rect x="1500.21" y="219.808" width="19.5504" height="172.634" fill="#001D5D" stroke="#001D5D" stroke-width="2.01817"/>
<path d="M1509.98 159.88V393.452" stroke="#001D5D" stroke-width="2.01817"/>
<rect x="1437.89" y="329.229" width="19.5504" height="101.09" fill="#001D5D" stroke="#001D5D" stroke-width="2.01817"/>
<path d="M1447.67 300.865V439.745" stroke="#001D5D" stroke-width="2.01817"/>
<rect x="1375.59" y="413.399" width="19.5504" height="42.171" fill="#001D5D" stroke="#001D5D" stroke-width="2.01817"/>
<path d="M1385.37 334.532V473.413" stroke="#001D5D" stroke-width="2.01817"/>
<rect x="1282.13" y="362.897" width="19.5504" height="42.171" fill="#001D5D" stroke="#001D5D" stroke-width="2.01817"/>
<path d="M1291.9 324.011V477.621" stroke="#001D5D" stroke-width="2.01817"/>
<rect x="1246.17" y="407.086" width="19.5504" height="101.09" fill="#001D5D" stroke="#001D5D" stroke-width="2.01817"/>
<path d="M1255.95 401.868V513.393" stroke="#001D5D" stroke-width="2.01817"/>
<rect x="1183.87" y="463.901" width="19.5504" height="59.0049" fill="#001D5D" stroke="#001D5D" stroke-width="2.01817"/>
<path d="M1193.64 446.058V523.915" stroke="#001D5D" stroke-width="2.01817"/>
<rect x="1059.25" y="289.248" width="19.5504" height="21.1285" fill="#001D5D" stroke="#001D5D" stroke-width="2.01817"/>
<path d="M1069.03 281.927V378.722" stroke="#001D5D" stroke-width="2.01817"/>
<rect x="996.935" y="270.31" width="19.5504" height="31.6498" fill="#001D5D" stroke="#001D5D" stroke-width="2.01817"/>
<path d="M1006.71 220.903V317.698" stroke="#001D5D" stroke-width="2.01817"/>
</g>
</g>
<defs>
<filter id="filter0_f_5911_2126" x="0.981833" y="0.68154" width="965.039" height="565.87" filterUnits="userSpaceOnUse" color-interpolation-filters="sRGB">
<feFlood flood-opacity="0" result="BackgroundImageFix"/>
<feBlend mode="normal" in="SourceGraphic" in2="BackgroundImageFix" result="shape"/>
<feGaussianBlur stdDeviation="1.00908" result="effect1_foregroundBlur_5911_2126"/>
</filter>
<filter id="filter1_f_5911_2126" x="962.755" y="18.9818" width="965.038" height="565.87" filterUnits="userSpaceOnUse" color-interpolation-filters="sRGB">
<feFlood flood-opacity="0" result="BackgroundImageFix"/>
<feBlend mode="normal" in="SourceGraphic" in2="BackgroundImageFix" result="shape"/>
<feGaussianBlur stdDeviation="1.00908" result="effect1_foregroundBlur_5911_2126"/>
</filter>
</defs>
</svg>
